<?xml version="1.0" encoding="utf-8"?>
<!-- Generator: Adobe Illustrator 19.2.1, SVG Export Plug-In . SVG Version: 6.00 Build 0)  -->
<svg version="1.1" id="layer" xmlns="http://www.w3.org/2000/svg" xmlns:xlink="http://www.w3.org/1999/xlink" x="0px" y="0px"
	 viewBox="0 0 652 652" style="enable-background:new 0 0 652 652;" xml:space="preserve">
<style type="text/css">
	.st0{fill:#FFD100;}
	.st1{fill:#061AB1;}
</style>
<circle class="st0" cx="593.1" cy="393.5" r="33.5"/>
<path class="st1" d="M123,319v43.9h36.5c-5.3,8.4-17.3,12.8-25.5,12.8c-27.4,0-41.2-15.7-41.2-47.2c0-34.9,18.1-52.7,54.1-52.7
	c14.3,0,33,3.6,53,9.9v-52.5c-5.8-2.5-14.6-4.4-25.8-6.3c-10.1-1.7-20.3-2.7-30.5-2.7c-35.7,0-64,9.6-85.1,28.8s-31.9,45-31.9,77.7
	c0,29.9,8.2,53.5,24.7,70.9c16.5,17.6,38.7,26.4,66.7,26.4c28.2,0,54-14.6,62.3-33.1l-0.2,29.8h40.7V319H123z M240.9,424.6V227.4
	h63.2v145.8h68.9v51.4H240.9z M393.1,419.7v-53.8c9.3,3,20.3,5.5,32.7,7.7c12.4,2.2,23.1,3.3,32.1,3.3c15.4,0,23.3-3.8,23.3-10.7
	c0-4.4-2.5-6.6-13.7-9.1l-22-4.9c-37.6-8.5-55.2-27.4-55.2-59.6c0-21.1,7.4-37.9,22-50.3c14.6-12.1,34.9-18.1,60.4-18.1
	c17.6,0,44.5,3.6,61,7.7v51.4c-8.5-2.2-18.7-4.4-31.1-6.3c-12.4-1.9-22-2.7-29.1-2.7c-13.5,0-21.1,3.8-21.1,10.7
	c0,4.1,3.6,6.9,11,8.8l25.5,6c37.4,8.8,54.7,28,54.7,60.7c0,20.9-7.7,37.4-22.8,49.4s-36,18.1-62.6,18.1
	C432.9,427.9,407.4,424.3,393.1,419.7z"/>
</svg>
